<svg xmlns="http://www.w3.org/2000/svg" viewBox="0 0 500 500" width="500" height="500"><defs><style>.cls-1{fill:#0797cc;}.cls-2{fill:#1b4454;}.cls-3{fill:#f2f2f2;}</style></defs><title>Icons_Round (1)</title><circle class="cls-1" cx="250" cy="250" r="250"/><circle class="cls-2" cx="250" cy="250" r="197.7"/><circle class="cls-3" cx="158.3" cy="188.2" r="33.3"/><circle class="cls-3" cx="339" cy="188.2" r="33.3"/><path class="cls-3" d="M376 300.5a33.2 33.2 0 0 1-4 15.9s0 0 0 0c-12.9 27.3-53.3 74-121 74.6v-0.4c-0.4 0-0.9 0-1.3 0s-1.1 0-1.7 0V391c-67.5-0.6-109.7-46.5-123.2-73.9a0.1 0.1 0 0 1 0 0 33.3 33.3 0 1 1 60.6-27l0.1 0S207 323.3 248 324v0c0.6 0 1.1 0 1.7 0s0.9 0 1.3 0v0c40.5-0.7 59.4-33 60-34a0 0 0 0 0 0 0A33.3 33.3 0 0 1 376 300.5Z"/></svg>
